<svg height="511pt" viewBox="-59 1 511 511.99915" width="511pt" xmlns="http://www.w3.org/2000/svg"><path d="m364.144531 504.5h-334.3125c-12.054687 0-21.832031-9.777344-21.832031-21.832031v-453.332031c0-12.058594 9.777344-21.835938 21.832031-21.835938h264.824219l91.324219 86.832031v388.332031c0 12.058594-9.777344 21.835938-21.835938 21.835938zm0 0" fill="#f4f4f4"/><path d="m294.65625 7.5h-39.265625l91.324219 86.832031v388.332031c0 12.058594-9.773438 21.835938-21.832032 21.835938h39.261719c12.058594 0 21.835938-9.777344 21.835938-21.835938v-388.332031zm0 0" fill="#e8e8e8"/><path d="m346.714844 57-52.058594-49.5h-264.824219c-12.054687 0-21.832031 9.777344-21.832031 21.835938v27.664062zm0 0" fill="#f6d867"/><path d="m265.988281 57h80.726563l-52.058594-49.5h-28.667969zm0 0" fill="#e0c55e"/><path d="m294.65625 7.5v65c0 12.058594 9.773438 21.832031 21.832031 21.832031h69.492188zm0 0" fill="#dedcdd"/><path d="m8 366.203125v116.460937c0 12.058594 9.773438 21.835938 21.832031 21.835938h334.3125c12.058594 0 21.832031-9.777344 21.832031-21.835938v-116.460937zm0 0" fill="#f6d867"/><path d="m346.714844 482.667969c0 12.054687-9.773438 21.832031-21.832032 21.832031h39.261719c.378907 0 .753907-.011719 1.125-.027344 1.488281-.078125 2.9375-.300781 4.332031-.660156.699219-.179688 1.382813-.394531 2.050782-.636719.671875-.246093 1.324218-.523437 1.960937-.828125 2.226563-1.074218 4.242188-2.511718 5.972657-4.242187.496093-.496094.964843-1.011719 1.410156-1.550781.222656-.269532.4375-.546876.648437-.824219 1.253907-1.683594 2.277344-3.550781 3.011719-5.558594.246094-.667969.457031-1.351563.636719-2.050781.449219-1.742188.6875-3.570313.6875-5.453125v-116.464844h-39.265625zm0 0" fill="#e0c55e"/><path d="m385.980469 133.152344c4.140625 0 7.5-3.355469 7.5-7.5v-31.269532c0-1.074218-.160157-2.027343-.683594-3.179687-.386719-.835937-.933594-1.625-1.648437-2.304687-17.5625-16.699219-74.304688-70.648438-91.324219-86.832032-2.160157-2.050781-4.757813-2.07031225-4.65625-2.0468748-.488281-.0351562 11.886719-.0117187-265.335938-.0195312-16.085937 0-29.332031 13.070312-29.332031 29.335938v453.332031c0 16.085937 13.074219 29.332031 29.332031 29.332031h334.3125c16.175781 0 29.332031-13.160156 29.332031-29.332031v-329.015625c0-4.140625-3.355468-7.5-7.5-7.5-4.140624 0-7.5 3.359375-7.5 7.5v205.050781h-286.953124c-4.144532 0-7.5 3.359375-7.5 7.5 0 4.144531 3.355468 7.5 7.5 7.5h286.957031v108.964844c0 7.902343-6.429688 14.332031-14.335938 14.332031h-334.3125c-7.902343 0-14.332031-6.429688-14.332031-14.332031v-108.964844h48.023438c4.140624 0 7.5-3.355469 7.5-7.5 0-4.140625-3.359376-7.5-7.5-7.5h-48.023438v-294.203125h271.65625v8c0 16.175781 13.160156 29.335938 29.332031 29.335938h61.992188v23.816406c0 4.144531 3.355469 7.5 7.5 7.5zm-370.480469-83.648438v-20.167968c0-7.902344 6.429688-14.332032 14.332031-14.332032h257.324219v34.5zm300.988281 37.332032c-7.902343 0-14.332031-6.429688-14.332031-14.335938v-47.519531l65.050781 61.855469zm0 0"/><path d="m163.46875 469.558594c14.03125 0 25.410156-11.15625 25.410156-24.921875v-36.550781c0-3.292969-2.671875-5.964844-5.960937-5.964844-3.292969 0-5.964844 2.671875-5.964844 5.964844v36.550781c0 15.378906-21.96875 18.875-26.382813 3.640625-.71875-2.476563-3-4.289063-5.707031-4.289063-3.976562 0-6.820312 3.875-5.6875 7.671875 3.136719 10.515625 12.863281 17.898438 24.292969 17.898438zm0 0"/><path d="m228.570312 458.125c-6.53125 0-12.941406-2.421875-18.621093-5.304688-3.832031-1.953124-8.375.851563-8.375 5.144532 0 2.167968 1.195312 4.058594 2.964843 5.046875 22.265626 12.355469 50.515626 6.527343 50.515626-13.390625 0-14.757813-14.464844-17.789063-26.878907-20.035156-8.222656-1.488282-13.777343-2.25-13.804687-7.664063-.019532-4.554687 3.9375-9.34375 13.902344-9.34375 6.664062 0 12.503906 2.140625 17.652343 4.921875 3.769531 2.050781 8.464844-.667969 8.464844-5.046875 0-2.191406-1.226563-4.097656-3.035156-5.0625-26.4375-14.097656-48.878907-2.390625-48.910157 15.027344-.042968 26.222656 40.621094 14.917969 40.730469 27.585937.058594 6.847656-9.917969 8.121094-14.605469 8.121094zm0 0"/></svg>